<svg width="106" height="38" viewBox="0 0 106 38" fill="none" xmlns="http://www.w3.org/2000/svg">
<path d="M3 16.5C1.61929 16.5 0.5 17.6193 0.5 19C0.5 20.3807 1.61929 21.5 3 21.5V16.5ZM104.768 20.7678C105.744 19.7915 105.744 18.2085 104.768 17.2322L88.8579 1.32233C87.8816 0.34602 86.2986 0.34602 85.3223 1.32233C84.346 2.29864 84.346 3.88155 85.3223 4.85786L99.4645 19L85.3223 33.1421C84.346 34.1184 84.346 35.7014 85.3223 36.6777C86.2986 37.654 87.8816 37.654 88.8579 36.6777L104.768 20.7678ZM3 21.5H103V16.5H3V21.5Z" fill="#fff"/>
</svg>
